<svg xmlns="http://www.w3.org/2000/svg" width="4000" height="4000" viewBox="0 0 4000 4000">
  <defs>
    <style>
      .cls-1 {
        fill: #dac5a7;
        fill-rule: evenodd;
      }
    </style>
  </defs>
  <circle cx="2000" cy="2000" r="1775"/>
  <path id="CM" class="cls-1" d="M1283.36,2764.8c275.92,0,520.48-240.8,451.5-208.2-99.08,47.66-274.66,156.78-533.02,156.78-127.93,0-312.289-67.73-295.985-307.27,33.863-510.45,519.225-1300.57,787.615-1320.64,84.03-6.27,139.21,91.55,161.79,145.48,8.78,20.07,32.61-6.27,32.61-50.16s-189.38-173.08-277.17-173.08-185.62,97.83-242.06,164.3c-273.41,318.55-555.593,780.09-555.593,1153.83C813.047,2714.63,1076.42,2764.8,1283.36,2764.8ZM3185.92,1204.61c0-58.94-28.85-144.22-104.1-139.21-134.19,10.04-499.16,617.05-767.55,1025.91,13.8-174.33,55.19-696.06,58.95-737.45,3.76-47.66,7.52-124.16-105.35-124.16s-499.16,1133.76-556.85,1224.06c-3.76,5.02-7.53,13.8-13.8,15.05-8.78,2.51-18.81-2.5-18.81,5.02,0,10.03,63.96,70.23,110.37,70.23,37.62,0,20.06-20.06,17.56-42.64s87.79-422.65,201.92-679.76,224.49-524.24,268.39-524.24-68.98,803.92-68.98,879.17,91.55,114.13,102.84,86.54c40.13-104.1,645.9-1156.34,785.11-1156.34,10.03,0,17.56,6.27,17.56,25.08,0,263.38-487.87,1423.48-487.87,1768.38,0,65.21,50.16,87.79,87.79,94.06s8.78-43.9,8.78-75.25C2721.88,2567.89,3185.92,1447.92,3185.92,1204.61Z"/>
  <path id="Portfolio" class="cls-1" d="M1280.5,2955.32h28.05q25.845,0,38.31-12.83t12.47-33.55q0-30.525-25.02-39.88a73.307,73.307,0,0,0-25.76-4.3h-52.62v128.33h24.57v-37.77Zm0-21.63v-47.48h26.76q28.785,0,28.79,23.46,0,24.015-28.79,24.02H1280.5Zm224.17,54.82a44.639,44.639,0,0,0,19.11-17.15q6.87-11.085,6.88-27.4,0-23.3-14.58-36.49t-36.94-13.2q-22.92,0-37.4,13.29t-14.48,36.4a54.379,54.379,0,0,0,5.86,25.3,43.9,43.9,0,0,0,17.37,18.05q11.505,6.705,28.65,6.7A59.7,59.7,0,0,0,1504.67,2988.51Zm-45.33-22.28q-8.07-7.785-8.07-21.91t8.07-21.91a28.6,28.6,0,0,1,39.14-.09q8.16,7.71,8.16,22,0,14.31-8.16,22A28.6,28.6,0,0,1,1459.34,2966.23Zm174.53-20.44q0-13.2,7.98-20.9t25.39-7.7v-23.1q-23.295.36-33.37,19.8v-18.88h-23.83v98.08h23.83v-47.3Zm167.47,41.25-5.5-17.97q-7.875,4.035-13.93,4.04-10.26,0-10.27-12.47v-44.18h28.05v-17.42h-28.05v-26.95h-23.65v26.95h-13.93l0.18,17.42h13.75v48.4q0,15.03,8.53,22.18a30.483,30.483,0,0,0,20.26,7.15,45.864,45.864,0,0,0,24.56-7.15h0Zm105.6-70.58h24.57v-17.42h-24.57v-10.08c0-4.53,1.22-7.73,3.67-9.63a14.239,14.239,0,0,1,8.98-2.84,26.074,26.074,0,0,1,12.1,2.93l4.22-19.25a41.988,41.988,0,0,0-17.97-4.21,40.762,40.762,0,0,0-16.73,3.52,31.037,31.037,0,0,0-13.15,11.23q-4.95,7.425-4.95,18.98v9.35h-12.83v17.42h12.83v76.63h23.83v-76.63Zm164.96,72.05a44.639,44.639,0,0,0,19.11-17.15q6.87-11.085,6.88-27.4,0-23.3-14.58-36.49t-36.94-13.2q-22.92,0-37.4,13.29t-14.48,36.4a54.379,54.379,0,0,0,5.86,25.3,43.9,43.9,0,0,0,17.37,18.05q11.505,6.705,28.65,6.7A59.7,59.7,0,0,0,2071.9,2988.51Zm-45.33-22.28q-8.07-7.785-8.07-21.91t8.07-21.91a28.6,28.6,0,0,1,39.14-.09q8.16,7.71,8.16,22,0,14.31-8.16,22A28.6,28.6,0,0,1,2026.57,2966.23Zm194.15,23.19-2.75-19.98a19.76,19.76,0,0,1-9.72,2.93q-8.985,0-8.98-11V2857.06h-23.65v106.33q0,20.355,13.56,27.5a26.8,26.8,0,0,0,13.02,3.3,41.291,41.291,0,0,0,18.52-4.77h0Zm92.95-110.18a12.773,12.773,0,0,0,4.53-5.23,17.6,17.6,0,0,0-.36-15.08,11.4,11.4,0,0,0-5-4.62,15.5,15.5,0,0,0-6.69-1.47,14.652,14.652,0,0,0-6.56,1.51,11.831,11.831,0,0,0-4.95,4.68,15.7,15.7,0,0,0-1.87,8.11,14.6,14.6,0,0,0,1.92,7.79,12.788,12.788,0,0,0,4.95,4.72,13.7,13.7,0,0,0,6.51,1.61A13.324,13.324,0,0,0,2313.67,2879.24Zm4.4,15.77h-23.84v98.08h23.84v-98.08Zm156.61,93.5a44.639,44.639,0,0,0,19.11-17.15q6.87-11.085,6.87-27.4,0-23.3-14.57-36.49t-36.94-13.2q-22.92,0-37.4,13.29t-14.49,36.4a54.385,54.385,0,0,0,5.87,25.3,43.9,43.9,0,0,0,17.37,18.05q11.505,6.705,28.65,6.7A59.735,59.735,0,0,0,2474.68,2988.51Zm-45.33-22.28q-8.07-7.785-8.07-21.91t8.07-21.91a28.6,28.6,0,0,1,39.14-.09q8.16,7.71,8.16,22,0,14.31-8.16,22A28.6,28.6,0,0,1,2429.35,2966.23Z"/>
</svg>
